<svg width="74" height="70" viewBox="0 0 74 70" fill="none" xmlns="http://www.w3.org/2000/svg">
<path d="M37.4456 39.7302L25.0163 33.2904L3.44098 22.1133C3.42128 22.094 3.38189 22.094 3.3622 22.094C2.57442 21.7273 1.76695 22.4994 2.06236 23.2716L13.0558 50.7548L13.0578 50.7606C13.0696 50.7877 13.0795 50.8146 13.0913 50.8417C13.5423 51.8667 14.527 52.4998 15.5984 52.7488C15.689 52.7683 15.7538 52.7856 15.8626 52.807C15.9708 52.8306 16.1223 52.8628 16.2522 52.8725C16.2739 52.8744 16.2936 52.8744 16.3153 52.8762H16.331C16.3468 52.8783 16.3625 52.8783 16.3783 52.8802H16.3999C16.4137 52.882 16.4295 52.882 16.4433 52.882H16.4689C16.4846 52.8841 16.5004 52.8841 16.5162 52.8841C30.439 54.372 43.4855 54.372 57.4084 52.8841C57.5757 52.8841 57.7392 52.8762 57.8966 52.8609C57.9479 52.8551 57.9971 52.8494 58.0465 52.8436C58.0524 52.8415 58.0602 52.8415 58.0661 52.8396C58.0996 52.8357 58.133 52.8299 58.1665 52.8241C58.2157 52.8183 58.2651 52.8088 58.3142 52.7991C58.4128 52.7778 58.4575 52.7625 58.5912 52.7173C58.7247 52.6724 58.9467 52.5936 59.0854 52.5281C59.2244 52.4625 59.3205 52.3995 59.4368 52.3281C59.5805 52.2392 59.7173 52.1484 59.8561 52.0465C59.9159 52.0015 59.9568 51.9728 60 51.9323L60.5 50.5L37.4456 39.7302Z" fill="#FF4B4B" stroke="black" stroke-width="3"/>
<path d="M70.587 22.121H70.5674L49 32.9815L61 49.5L71.9468 23.2464V23.2089C72.2224 22.4211 71.3762 21.7083 70.587 22.121Z" fill="#7D353B" stroke="black" stroke-width="3"/>
<path d="M37.8928 16.5801C37.3691 15.8066 36.2285 15.8066 35.7237 16.5801L25 32.7368L36.8007 39.0459L59.1642 51C59.3046 50.8609 59.4173 50.7254 59.5362 50.5822C59.7045 50.3723 59.8616 50.1474 60 49.8957L48.6088 32.7368L37.8928 16.5801Z" fill="#BD4043" stroke="black" stroke-width="3"/>
</svg>
