<svg width="70" height="70" viewBox="0 0 70 70" fill="none" xmlns="http://www.w3.org/2000/svg">
<path d="M60 2.92031V67.0797C60 67.8639 59.3639 68.5 58.5797 68.5H40.3578C39.5735 68.5 38.9375 67.864 38.9375 67.0797V2.92031C38.9375 2.1359 39.5734 1.5 40.3578 1.5H58.5797C59.3643 1.5 60 2.13582 60 2.92031Z" fill="#DA8C11" stroke="black" stroke-width="3"/>
<path d="M45.7812 20.4167V68.5H24.7188V20.4167C24.7188 19.6343 25.353 19 26.1354 19H44.3644C45.147 19 45.7812 19.6343 45.7812 20.4167Z" fill="#E9B51C" stroke="black" stroke-width="3"/>
<path d="M10.5 67.0832V37.9167C10.5 37.1343 11.1343 36.5 11.9167 36.5H30.1458C30.9282 36.5 31.5625 37.1343 31.5625 37.9167V68.5H11.9167C11.1344 68.5 10.5 67.8657 10.5 67.0832Z" fill="#F6D751" stroke="black" stroke-width="3"/>
</svg>
