<svg width="70" height="74" viewBox="0 0 70 74" fill="none" xmlns="http://www.w3.org/2000/svg">
<path d="M17.9753 58.7576C21.6301 53.3717 24.0272 47.0365 26.0699 41.6379C26.4017 40.761 26.7241 39.9089 27.0411 39.0896C28.2243 36.0308 29.3144 33.4689 30.5125 31.6749C31.7157 29.8733 32.8641 29.0859 34.1104 29.0859C35.3558 29.0859 36.4773 29.9043 37.6202 31.5531C38.706 33.1195 39.6444 35.1928 40.6247 37.3586C40.6687 37.4559 40.7128 37.5533 40.7571 37.6509C41.7582 39.8611 42.8202 42.1691 44.107 43.8116C45.4114 45.4765 47.1475 46.6949 49.4484 46.1722C52.7684 45.418 54.2884 43.6263 55.6139 42.064C55.8159 41.8258 56.0135 41.5929 56.2122 41.3699C56.9603 40.5303 57.7372 39.796 58.8638 39.2451C59.8218 38.7765 61.085 38.4157 62.8713 38.2884V52.8849L35.3375 68.7799L17.9753 58.7576Z" fill="#36A2EB" stroke="black" stroke-width="2"/>
<path d="M17.8789 41.1567L17.8789 41.1567C20.5028 37.7001 22.3952 36.2242 23.8197 35.7537C25.1185 35.3247 26.1887 35.6864 27.4281 36.5766C28.0622 37.032 28.6973 37.5958 29.4059 38.2277L29.4391 38.2572C30.1248 38.8687 30.8719 39.5349 31.6858 40.1424C33.3556 41.3886 35.3774 42.4424 38.0089 42.4424C40.6391 42.4424 42.5084 41.4535 43.9211 39.9775C45.2855 38.5519 46.2098 36.6819 47.0346 34.9776C47.0681 34.9084 47.1014 34.8394 47.1346 34.7708C47.9494 33.0858 48.6777 31.5795 49.6575 30.4547C50.6246 29.3445 51.8095 28.6415 53.5927 28.6415C55.5825 28.6415 57.0844 29.6232 58.5533 31.2532C59.2929 32.0739 59.9986 33.0311 60.7409 34.0735C60.8846 34.2753 61.0299 34.4806 61.1768 34.6883C61.7156 35.4496 62.2775 36.2436 62.8713 37.0203V52.8853L35.3376 68.7804L10.1461 54.2375C12.1981 49.8412 14.7567 45.2697 17.8789 41.1567Z" fill="#FFCE56" stroke="black" stroke-width="2"/>
<path d="M7.80333 52.8849L7.80292 42.5708C8.27471 41.2586 8.70179 40.0034 9.10647 38.8141C10.0831 35.9438 10.9292 33.4571 11.9581 31.4782C12.6813 30.0873 13.449 29.0483 14.3335 28.3574C15.195 27.6843 16.2128 27.3054 17.5278 27.3054C19.3445 27.3054 20.9757 28.5757 22.5796 30.9307C24.1655 33.2593 25.5336 36.3657 26.9074 39.5057C26.93 39.5573 26.9526 39.609 26.9752 39.6607C28.3011 42.6915 29.6466 45.7668 31.1755 47.9198C31.9566 49.0197 32.8429 49.9646 33.8794 50.5311C34.9568 51.1199 36.1559 51.2752 37.4349 50.8488C39.7159 50.0886 41.3166 48.514 42.6175 46.7162C43.4876 45.5139 44.2776 44.1262 45.0477 42.7737C45.4012 42.1527 45.7506 41.5391 46.1015 40.9543C47.2533 39.0347 48.4829 37.3033 50.1244 36.0436C51.7386 34.805 53.8048 33.9825 56.7094 33.9825C58.5961 33.9825 60.6737 35.1022 62.8717 37.2091V52.8849L35.338 68.7799L7.80333 52.8849Z" fill="#FE6193" stroke="black" stroke-width="2"/>
<path d="M35.3152 72L5 54.5004V19.5L35.3152 2L65.6305 19.5V54.5L35.3152 72ZM8.56169 52.4442L35.3152 67.8884L62.0688 52.4442V21.5563L35.3152 6.11206L8.56169 21.5563V52.4442Z" fill="#AFB1B6" stroke="black" stroke-width="2"/>
</svg>
