<svg width="74" height="74" viewBox="0 0 74 74" fill="none" xmlns="http://www.w3.org/2000/svg">
<path d="M33.3392 2C32.0674 2.035 30.8202 2.62563 29.7701 3.76532C29.1879 4.40407 28.8117 5.11063 28.4042 5.87407C27.3541 7.81001 27.1436 9.99751 26.7473 12.1172C26.0129 16.0941 25.2896 20.0688 24.5776 24.0457C24.497 24.5138 24.2977 24.7063 23.8544 24.831C18.5724 26.4607 13.2881 28.0772 8.0397 29.7529C6.88433 30.1182 5.7312 30.595 4.71689 31.2229C1.60232 33.1588 1.13659 36.3394 3.46972 39.1307C4.50866 40.3623 5.83644 41.2154 7.30752 41.8541C10.5967 43.2891 13.886 44.7023 17.1618 46.1504C17.22 46.1723 17.267 46.1854 17.314 46.2073H17.3028L21.21 47.7691V47.9748C20.6144 53.8985 20.0435 59.8245 19.4725 65.7592C19.3561 66.9776 19.4367 68.1741 19.88 69.3488C20.8249 71.8776 23.0528 72.687 25.4889 71.3876C26.5973 70.7948 27.484 69.9417 28.2878 69.0054C32.3808 64.2651 36.4851 59.5379 40.5669 54.7867C40.8939 54.3995 41.1737 54.3535 41.6507 54.5023C42.6896 54.8435 43.7263 55.1738 44.7652 55.5173H44.7764C44.8347 55.5523 44.9041 55.5742 44.9869 55.6092L45.4191 55.7338C49.1382 56.9413 53.4193 57.9892 57.1384 59.1967C58.3386 59.5838 59.0036 59.6757 60.2642 59.481C61.1979 59.3432 62.0376 59.2995 62.7362 58.7963C64.5319 57.8273 65.7097 56.0051 65.6873 53.8854C65.6761 52.6429 65.2216 51.5163 64.6372 50.4335C62.1876 45.8879 59.7515 41.3532 57.2907 36.8185C57.0578 36.3854 57.069 36.1119 57.4071 35.7247C61.5248 31.0194 65.6291 26.29 69.7445 21.5628C70.5483 20.6288 71.2716 19.6488 71.6925 18.4763C72.6128 15.9235 71.4238 13.8956 68.7078 13.4056C67.483 13.2 66.2247 13.2678 65.0223 13.6003C59.1223 15.1272 53.2312 16.6431 47.3536 18.181C46.8297 18.3188 46.5722 18.2269 46.2923 17.7588C43.9121 13.8388 41.4984 9.93188 39.0623 6.04688C38.5137 5.14781 37.8621 4.31438 37.1143 3.56406C36.0059 2.49219 34.7229 1.96937 33.4534 2.00219L33.3392 2ZM34 12.1172L35 13.5C37.5996 17.7153 39.7273 21.8472 42.3157 26.0735C42.5261 26.4147 42.7232 26.5285 43.1441 26.4147C47.7029 25.2291 52.2528 24.0457 56.8115 22.871C57.9087 22.5866 59.0036 22.3132 60.112 22.0288C60.0649 22.2453 59.9597 22.451 59.8097 22.6107C56.0547 26.9288 52.2998 31.2469 48.5336 35.5541C48.2067 35.9413 48.1731 36.2038 48.406 36.6369C51.2049 41.9001 53.688 46.286 55.8689 50.5254L44.8369 47.5526C43.227 47.0276 41.6171 46.5048 40.0094 45.9798C39.5302 45.8201 39.2638 45.8879 38.9369 46.2641C35.2178 50.6041 31.4606 54.9354 27.7191 59.2645C27.578 59.4351 27.3921 59.5729 27.1817 59.6407C27.2869 58.547 27.381 57.4423 27.484 56.3376C27.9385 51.746 28.3706 47.1654 28.8364 42.5738C28.7423 41.6507 29.1857 41.4013 27.8691 40.9901C23.4133 39.2576 17.8872 37.1401 13.5008 35.4294C13.7001 35.2479 13.9442 35.1101 14.2129 35.0422C19.5777 33.3797 24.9426 31.715 30.3186 30.0635C30.6926 29.9497 30.9142 29.801 30.9478 29.3919C30.9836 28.9588 31.1001 28.5257 31.1695 28.1035C31.8927 24.1266 32.6159 20.1519 33.3392 16.175C33.5496 15.0463 33.7918 13.246 34 12.1172Z" fill="#E25A1C" stroke="black" stroke-width="3"/>
</svg>
